<svg id="a3341ae0-f49d-495b-bfee-4a1416593ddf" data-name="Layer 1" xmlns="http://www.w3.org/2000/svg" viewBox="0 0 885 284"><path d="M114.81,150.22V132.38c0-3.95,2.23-6.18,5-6.18s5,2.23,5,6.18v17.84Z"/><path d="M129.67,150.82V132.38a5,5,0,0,1,10,0v18.44Z"/><path d="M100,150.22v-19c0-4,2.23-6.18,5-6.18s5,2.23,5,6.18v19Z"/><path d="M144.54,150.82v-16a5,5,0,1,1,9.94,0v16Z"/><path d="M123.39,154.07a0,0,0,0,1,0,0v3.15a7.09,7.09,0,0,1-6.78,6.82H97a0,0,0,0,0,0,0v1.23a2.48,2.48,0,0,0,2.51,2.46h7.7c8.66,1.07,16,10.19,16.15,17.56a2.53,2.53,0,0,0,2.26,2.56,2.4,2.4,0,0,0,2.55-2.4c0-6.15-3.81-13.11-9.5-17.68a0,0,0,0,1,0,0h26.52a2.46,2.46,0,1,0,0-4.91H125.47s0,0,0,0c1.3-1,1.73-3,1.73-5.14v-1.91l0,0h23.92a3.35,3.35,0,0,1,3.36,3.36v22.27c0,5-3.94,11.28-8.67,11.3,0,0,0,0,0,0v10.52A18.78,18.78,0,0,1,127,222H105.55s0,0,0,0V189.62s0,0,0,0l5.7,4.13s0,.05,0,.05c-10.42-.06-20.15-10.86-20.15-20.23V159.89a5.83,5.83,0,0,1,5.83-5.82Z"/><path d="M189.88,171.29a3.9,3.9,0,0,0-2.14-.21,2.54,2.54,0,0,0-.66.21,3.18,3.18,0,0,0-.67.32l-.55.43a3.61,3.61,0,0,0-1.07,2.52,3.36,3.36,0,0,0,.29,1.36,4.13,4.13,0,0,0,.78,1.17,3.8,3.8,0,0,0,5.22,0l0,0a4.13,4.13,0,0,0,.78-1.17,3.36,3.36,0,0,0,.29-1.36A3.61,3.61,0,0,0,191.1,172,4.36,4.36,0,0,0,189.88,171.29Z"/><path d="M177.85,45H71.51A14.08,14.08,0,0,0,57.18,58.8h0v65.06a3.7,3.7,0,0,0,7.39,0V58.65a6.82,6.82,0,0,1,6.94-6.54H85.8l2.62,5.41a11.29,11.29,0,0,0,10.19,6.25h48A11.28,11.28,0,0,0,157,57.37l2.62-5.26H178A6.82,6.82,0,0,1,185,58.8h0V163.26a3.7,3.7,0,0,0,7.39,0V58.65A14.08,14.08,0,0,0,177.88,45Z"/><path d="M60.87,139.51a3.56,3.56,0,1,0,.18-7.11,3.81,3.81,0,0,0-2.69,1,3.27,3.27,0,0,0-.77,1.17,3.19,3.19,0,0,0,0,2.7,3.54,3.54,0,0,0,.77,1.18A4,4,0,0,0,60.87,139.51Z"/><path d="M188.48,183.67a3.62,3.62,0,0,0-3.69,3.55v35.84a6.81,6.81,0,0,1-6.8,6.83H71.51a6.81,6.81,0,0,1-6.94-6.69h0V148.11a3.7,3.7,0,0,0-7.39,0v74.95A14.06,14.06,0,0,0,71.36,237H177.85a14.07,14.07,0,0,0,14.32-13.8h0v-36A3.62,3.62,0,0,0,188.48,183.67Z"/><path d="M94.62,102.43H91.43l-1,9.79H86l1-9.79h-2.4L85,98.61h2.41l.93-9H85.9l.39-3.82h2.45l.83-7.89H94l-.83,7.89h3.18l.83-7.89h4.41l-.83,7.89h2.5l-.39,3.82h-2.5l-.93,9h2.49l-.39,3.82H99l-1,9.79H93.59Zm-2.8-3.82H95l.93-9H92.75Z"/><path d="M105.93,77.93h8.52c5.39,0,8,3,8,8.48v17.34c0,5.48-2.64,8.47-8,8.47h-8.52Zm5.38,4.9v24.49h3c1.72,0,2.74-.88,2.74-3.33V86.16c0-2.45-1-3.33-2.74-3.33Z"/><path d="M137.86,94l-2,18.27h-7.4l-3.82-34.29h5.24l2.89,27,2.6-27h5.19l2.7,27.24,2.79-27.24h4.7L147,112.22h-7.15Z"/><path d="M153.48,77.93h5.38v34.29h-5.38Z"/><polyline points="40.95 178.14 40.95 251.5 93.93 251.5" fill="none" stroke="#000" stroke-linecap="round" stroke-linejoin="round" stroke-width="7"/><circle cx="105.5" cy="251.5" r="3.5"/><polyline points="204.21 105.59 204.21 32.23 151.23 32.23" fill="none" stroke="#000" stroke-linecap="round" stroke-linejoin="round" stroke-width="7"/><circle cx="139.66" cy="32.23" r="3.5"/><text transform="translate(241.65 169.8)" font-size="74" font-family="BebasNeueBold, Bebas Neue">Digi<tspan x="87.17" y="0" letter-spacing="-0.04em">t</tspan><tspan x="110.7" y="0">al Worker Inqui</tspan><tspan x="495.64" y="0" letter-spacing="-0.01em">r</tspan><tspan x="524.65" y="0">y</tspan></text></svg>