<?xml version="1.0" encoding="utf-8"?>
<!-- Generator: Adobe Illustrator 25.4.1, SVG Export Plug-In . SVG Version: 6.00 Build 0)  -->
<svg version="1.1"
	 id="svg929" xmlns:cc="http://creativecommons.org/ns#" xmlns:dc="http://purl.org/dc/elements/1.1/" xmlns:inkscape="http://www.inkscape.org/namespaces/inkscape" xmlns:rdf="http://www.w3.org/1999/02/22-rdf-syntax-ns#" xmlns:sodipodi="http://sodipodi.sourceforge.net/DTD/sodipodi-0.dtd" xmlns:svg="http://www.w3.org/2000/svg"
	 xmlns="http://www.w3.org/2000/svg" xmlns:xlink="http://www.w3.org/1999/xlink" x="0px" y="0px" viewBox="0 0 1014.3 218.2"
	 style="enable-background:new 0 0 1014.3 218.2;" xml:space="preserve">
<style type="text/css">
	.st0{fill:none;stroke:#000000;stroke-width:7;stroke-miterlimit:10;}
	.st1{fill:#FFFFFF;}
	.st2{fill:none;stroke:#FFFFFF;stroke-width:7;stroke-linecap:round;stroke-linejoin:round;stroke-miterlimit:10;}
</style>
<sodipodi:namedview  bordercolor="#666666" borderopacity="1" gridtolerance="10" guidetolerance="10" id="namedview931" inkscape:current-layer="g927" inkscape:cx="507.14999" inkscape:cy="109.105" inkscape:pagecheckerboard="true" inkscape:pageopacity="0" inkscape:pageshadow="2" inkscape:window-height="1017" inkscape:window-maximized="1" inkscape:window-width="1920" inkscape:window-x="272" inkscape:window-y="1432" inkscape:zoom="1.4196983" objecttolerance="10" pagecolor="#ffffff" showgrid="false">
	</sodipodi:namedview>
<path class="st0" d="M712.5,459.4"/>
<g>
	<g>
		<g>
			<path class="st1" d="M76,113.1V97.4c0-3.5,2-5.4,4.4-5.4c2.4,0,4.4,2,4.4,5.4v15.7H76z"/>
			<path class="st1" d="M89.1,113.7V97.4c0-2.4,2-4.4,4.4-4.4s4.4,2,4.4,4.4v16.3C97.8,113.7,89.1,113.7,89.1,113.7z"/>
			<path class="st1" d="M62.9,113.1V96.3c0-3.5,2-5.4,4.4-5.4c2.4,0,4.4,2,4.4,5.4v16.8H62.9z"/>
			<path class="st1" d="M102.2,113.7V99.5c0-2.4,2-4.4,4.4-4.4c2.4,0,4.4,2,4.4,4.4v11.9c0,0,0,0,0,0.1v2.1L102.2,113.7L102.2,113.7
				z"/>
		</g>
		<path class="st1" d="M83.5,116.5C83.5,116.5,83.6,116.5,83.5,116.5l0,2.8c0,2.8-2.6,6-6,6H60.3c0,0,0,0,0,0v1.1
			c0,1.2,1,2.2,2.2,2.2v0h6.8c0,0,0,0,0,0c7.6,0.9,14.1,9,14.2,15.5c0,1.2,0.8,2.2,2,2.3c1.2,0.1,2.2-0.9,2.2-2.1
			c0-5.4-3.4-11.6-8.4-15.6c0,0,0,0,0,0h23.4c1.2,0,2.2-1,2.2-2.2c0-1.2-1-2.2-2.2-2.2H92.2v0h-6.8c0,0,0,0,0,0
			c1.1-0.9,1.5-2.6,1.5-4.5V118c0,0,0,0,0,0H108c1.6,0,3,1.3,3,3l0,19.6c0,4.4-3.5,9.9-7.6,10c0,0,0,0,0,0v9.3
			c0,9.1-7.4,16.6-16.6,16.6H67.8c0,0,0,0,0,0v-28.5c0,0,0,0,0,0l5,3.6c0,0,0,0,0,0c-9.2-0.1-17.8-9.6-17.8-17.8v-12
			c0-2.8,2.3-5.1,5.1-5.1H83.5z"/>
	</g>
	<g>
		<path class="st1" d="M142.2,131.7c-0.6-0.2-1.3-0.3-1.9-0.2c-0.2,0-0.4,0.1-0.6,0.2c-0.2,0.1-0.4,0.2-0.6,0.3l-0.5,0.4
			c-0.6,0.6-0.9,1.4-0.9,2.2c0,0.4,0.1,0.8,0.3,1.2c0.2,0.4,0.4,0.7,0.7,1c1.3,1.2,3.3,1.2,4.6,0c0,0,0,0,0,0c0.3-0.3,0.5-0.7,0.7-1
			c0.2-0.4,0.3-0.8,0.3-1.2c0-0.8-0.3-1.6-0.9-2.2C142.9,132.1,142.5,131.9,142.2,131.7z"/>
		<path class="st1" d="M131.5,20.4H37.8c-7,0-12.6,5.4-12.6,12.2l0,0v57.4c0,1.7,1.5,3.1,3.3,3.1c1.8,0,3.3-1.4,3.3-3.1V32.4
			c0.1-3.2,2.8-5.8,6.1-5.8h12.6l2.3,4.8c1.6,3.4,5.1,5.5,9,5.5H104c3.9,0,7.5-2.2,9.1-5.6l2.3-4.6h16.3c3.4,0,6.1,2.6,6.1,5.9l0,0
			v92.1c0,1.7,1.5,3.1,3.3,3.1s3.3-1.4,3.3-3.1V32.4C144.3,25.7,138.6,20.3,131.5,20.4C131.6,20.4,131.6,20.4,131.5,20.4z"/>
		<path class="st1" d="M28.4,103.7c1.8,0,3.3-1.3,3.3-3.1c0-1.7-1.4-3.2-3.2-3.2c-0.9,0-1.7,0.3-2.4,0.9c-0.3,0.3-0.5,0.6-0.7,1
			c-0.3,0.8-0.3,1.6,0,2.4c0.2,0.4,0.4,0.7,0.7,1C26.8,103.3,27.6,103.7,28.4,103.7z"/>
		<path class="st1" d="M140.9,142.6c-1.8,0-3.3,1.4-3.3,3.1v31.6c0.1,3.3-2.6,5.9-6,6c0,0-0.1,0-0.1,0H37.8c-3.4,0-6.1-2.6-6.1-5.9
			l0,0v-66.2c0-1.7-1.5-3.1-3.3-3.1c-1.8,0-3.3,1.4-3.3,3.1v66.1c-0.1,6.7,5.5,12.2,12.5,12.3c0,0,0.1,0,0.1,0h93.7
			c7,0,12.6-5.4,12.6-12.2c0,0,0,0,0,0v-31.7C144.2,144,142.7,142.6,140.9,142.6z"/>
	</g>
	<g>
		<path class="st1" d="M58.2,71h-2.8l-0.9,8.6h-3.9l0.9-8.6h-2.1l0.3-3.4h2.1l0.8-7.9h-2.2l0.3-3.4H53l0.7-7h3.9l-0.7,7h2.8l0.7-7
			h3.9l-0.7,7h2.2l-0.3,3.4h-2.2l-0.8,7.9h2.2L64.3,71h-2.2l-0.9,8.6h-3.9L58.2,71z M55.7,67.6h2.8l0.8-7.9h-2.8L55.7,67.6z"/>
		<path class="st1" d="M68.1,49.4h7.5c4.8,0,7.1,2.6,7.1,7.5v15.3c0,4.8-2.3,7.5-7.1,7.5h-7.5V49.4z M72.9,53.7v21.6h2.7
			c1.5,0,2.4-0.8,2.4-2.9V56.7c0-2.2-0.9-2.9-2.4-2.9H72.9z"/>
		<path class="st1" d="M96.3,63.5l-1.7,16.1H88l-3.4-30.2h4.6l2.5,23.8l2.3-23.8h4.6l2.4,24l2.5-24h4.1l-3.4,30.2H98L96.3,63.5z"/>
		<path class="st1" d="M110.1,49.4h4.7v30.2h-4.7V49.4z"/>
	</g>
	<polyline class="st2" points="10.9,137.8 10.9,202.4 57.6,202.4 	"/>
	<circle class="st1" cx="67.8" cy="202.4" r="3.1"/>
	<polyline class="st2" points="154.8,73.8 154.8,9.1 108.1,9.1 	"/>
	<circle class="st1" cx="97.9" cy="9.1" r="3.1"/>
</g>
<g>
	<path class="st1" d="M165.6,83.8h19.8c12.5,0,18.6,6.9,18.6,19.7v40.2c0,12.7-6.1,19.7-18.6,19.7h-19.8V83.8z M178.1,95.1V152h7
		c4,0,6.4-2,6.4-7.7v-41.4c0-5.7-2.4-7.7-6.4-7.7H178.1z"/>
	<path class="st1" d="M212,83.8h12.5v79.6H212V83.8z"/>
	<path class="st1" d="M252.3,119h17.5v25.2c0,12.7-6.4,20-18.6,20c-12.3,0-18.6-7.3-18.6-20v-41.4c0-12.7,6.4-20,18.6-20
		c12.3,0,18.6,7.3,18.6,20v7.7H258v-8.5c0-5.7-2.5-7.8-6.5-7.8c-4,0-6.5,2.2-6.5,7.8v43c0,5.7,2.5,7.7,6.5,7.7c4,0,6.5-2,6.5-7.7
		v-14.7h-5.7V119z"/>
	<path class="st1" d="M277.9,83.8h12.5v79.6h-12.5V83.8z"/>
	<path class="st1" d="M295.9,83.8h38.7v11.4h-13.1v68.2H309V95.1h-13.1V83.8z"/>
	<path class="st1" d="M376.1,163.4h-12.6l-2.2-14.4H346l-2.2,14.4h-11.5l12.7-79.6h18.3L376.1,163.4z M347.6,138.1h12.1l-6-40.2
		L347.6,138.1z"/>
	<path class="st1" d="M381.9,83.8h12.5V152H415v11.4h-33.1V83.8z"/>
	<path class="st1" d="M465.8,120.9l-4.5,42.4h-17.2l-8.9-79.6h12.2l6.7,62.8l6-62.8h12.1l6.3,63.2l6.5-63.2h10.9l-8.9,79.6h-16.6
		L465.8,120.9z"/>
	<path class="st1" d="M501.1,102.9c0-12.7,6.7-20,19-20c12.3,0,19,7.3,19,20v41.4c0,12.7-6.7,20-19,20c-12.3,0-19-7.3-19-20V102.9z
		 M513.6,145c0,5.7,2.5,7.8,6.5,7.8c4,0,6.5-2.2,6.5-7.8v-43c0-5.7-2.5-7.8-6.5-7.8c-4,0-6.5,2.2-6.5,7.8V145z"/>
	<path class="st1" d="M573.3,163.4c-0.7-2-1.1-3.3-1.1-9.8v-12.5c0-7.4-2.5-10.1-8.2-10.1h-4.3v32.4h-12.5V83.8H566
		c13,0,18.5,6,18.5,18.3v6.3c0,8.2-2.6,13.5-8.2,16.1c6.3,2.6,8.3,8.6,8.3,16.9v12.3c0,3.9,0.1,6.7,1.4,9.7H573.3z M559.6,95.1v24.4
		h4.9c4.7,0,7.5-2,7.5-8.4v-7.8c0-5.7-1.9-8.2-6.4-8.2H559.6z"/>
	<path class="st1" d="M609.2,131.6l-3.9,7.3v24.4h-12.5V83.8h12.5v34.7l16.4-34.7h12.5l-17.4,35.5l17.4,44.1h-12.8L609.2,131.6z"/>
	<path class="st1" d="M652.4,117.3h17.2v11.4h-17.2V152H674v11.4h-34.1V83.8H674v11.4h-21.6V117.3z"/>
	<path class="st1" d="M707.9,163.4c-0.7-2-1.1-3.3-1.1-9.8v-12.5c0-7.4-2.5-10.1-8.2-10.1h-4.3v32.4h-12.5V83.8h18.9
		c13,0,18.5,6,18.5,18.3v6.3c0,8.2-2.6,13.5-8.2,16.1c6.3,2.6,8.3,8.6,8.3,16.9v12.3c0,3.9,0.1,6.7,1.4,9.7H707.9z M694.2,95.1v24.4
		h4.9c4.7,0,7.5-2,7.5-8.4v-7.8c0-5.7-1.9-8.2-6.4-8.2H694.2z"/>
	<path class="st1" d="M745.1,83.8h12.5v79.6h-12.5V83.8z"/>
	<path class="st1" d="M777.8,105.7v57.6h-11.3V83.8h15.7l12.8,47.6V83.8h11.1v79.6h-12.8L777.8,105.7z"/>
	<path class="st1" d="M814.2,102.9c0-12.7,6.7-20,19-20c12.3,0,19,7.3,19,20v41.4c0,4.4-0.8,8.2-2.4,11.1c0.6,1.5,1.5,1.7,3.5,1.7
		h1.1v11.1h-1.7c-5.6,0-9.1-2-10.8-5.5c-2.5,0.9-5.5,1.5-8.8,1.5c-12.3,0-19-7.3-19-20V102.9z M826.7,145c0,5.7,2.5,7.8,6.5,7.8
		c4,0,6.5-2.2,6.5-7.8v-43c0-5.7-2.5-7.8-6.5-7.8c-4,0-6.5,2.2-6.5,7.8V145z"/>
	<path class="st1" d="M872.2,83.8v61.4c0,5.7,2.5,7.7,6.5,7.7c4,0,6.5-2,6.5-7.7V83.8H897v60.6c0,12.7-6.4,20-18.6,20
		c-12.3,0-18.6-7.3-18.6-20V83.8H872.2z"/>
	<path class="st1" d="M905.5,83.8H918v79.6h-12.5V83.8z"/>
	<path class="st1" d="M953.2,163.4c-0.7-2-1.1-3.3-1.1-9.8v-12.5c0-7.4-2.5-10.1-8.2-10.1h-4.3v32.4h-12.5V83.8h18.9
		c13,0,18.5,6,18.5,18.3v6.3c0,8.2-2.6,13.5-8.2,16.1c6.3,2.6,8.3,8.6,8.3,16.9v12.3c0,3.9,0.1,6.7,1.4,9.7H953.2z M939.6,95.1v24.4
		h4.9c4.7,0,7.5-2,7.5-8.4v-7.8c0-5.7-1.9-8.2-6.4-8.2H939.6z"/>
	<path class="st1" d="M983.4,137l-15.8-53.2h13.1l9.6,36.3l9.5-36.3h11.9L995.9,137v26.4h-12.5V137z"/>
</g>
</svg>
