<svg xmlns="http://www.w3.org/2000/svg" viewBox="0 0 517.28 153.18"><title>Logo</title><g id="Layer_2" data-name="Layer 2"><g id="Layer_11" data-name="Layer 11"><path class="cls-1" d="M140,0H12A12,12,0,0,0,0,12V141.18a12,12,0,0,0,12,12H140a12,12,0,0,0,12-12V12A12,12,0,0,0,140,0ZM74.69,32.39a36,36,0,0,1,35.11,28h-8.27a28,28,0,0,0-53.68,0H39.58A36,36,0,0,1,74.69,32.39ZM91.12,54.64a6,6,0,1,1-6-6A6,6,0,0,1,91.12,54.64Zm-43.54,66h-8v-36h8Zm16,0h-8v-36h8Zm16,0h-8v-36h8Zm16,0h-8v-36h8Zm16,0h-8v-36h8Zm4-40h-80V72.75h80Z"></path><path class="cls-1" d="M203.65,72.56h-5V37H188.49v-4.3h25.25V37H203.65Z"></path><path class="cls-1" d="M223.35,48.86c2.5-3.1,5-4.47,8.29-4.47a9.18,9.18,0,0,1,6.39,2.5c1.49,1.5,2.15,3.64,2.15,7.17v18.5h-4.54V54.3c0-3.77-1.85-5.86-5.13-5.86a7,7,0,0,0-5.37,2.45c-1.38,1.55-1.79,2.93-1.79,5.55V72.56h-4.54V32.74h4.54Z"></path><path class="cls-1" d="M251.76,60.26a8.62,8.62,0,0,0,1.79,5A8.94,8.94,0,0,0,261,69a9.51,9.51,0,0,0,8.24-4.72l4,1.5A13.48,13.48,0,0,1,261,73.22c-8.18,0-14-6-14-14.33s5.8-14.5,13.85-14.5a13.68,13.68,0,0,1,14,14.08c0,.36,0,1.14-.06,1.79Zm18.15-3.34a8.54,8.54,0,0,0-1.55-4.71,9.45,9.45,0,0,0-7.59-3.77,8.84,8.84,0,0,0-7.4,3.83,11,11,0,0,0-1.55,4.65Z"></path><path class="cls-1" d="M350.51,32.74h5.19L343.52,72.56H339.1l-8.77-31.28-8.84,31.28h-4.41L304.9,32.74h5.31l9.08,30.51,8.83-30.51h4.72l8.53,30.63Z"></path><path class="cls-1" d="M384.65,58.89a14.06,14.06,0,0,1-14.09,14.33c-8.18,0-13.91-6-13.91-14.45s5.73-14.38,14.09-14.38C378.86,44.39,384.65,50.42,384.65,58.89Zm-23.34-.06c0,6.09,3.76,10.21,9.37,10.21,5.43,0,9.31-4.24,9.31-10.21,0-6.15-3.7-10.27-9.25-10.27S361.31,52.68,361.31,58.83Z"></path><path class="cls-1" d="M396.11,45V49.7a7.67,7.67,0,0,1,2.51-3.64,8.57,8.57,0,0,1,5.25-1.67h1.07V49a10,10,0,0,0-1.25-.06,7.05,7.05,0,0,0-6,3.17c-1.19,1.73-1.61,3.34-1.61,6.5v14h-4.54V45Z"></path><path class="cls-1" d="M414.61,72.56h-4.53V32.74h4.53V57.1L425.6,45h5.73L419,58.47l12.24,14.09H425.6l-11-12.3Z"></path><path class="cls-1" d="M437.72,60.26a8.49,8.49,0,0,0,1.79,5,8.93,8.93,0,0,0,7.4,3.76,9.54,9.54,0,0,0,8.24-4.72l4,1.5a13.49,13.49,0,0,1-12.24,7.4c-8.18,0-14-6-14-14.33s5.79-14.5,13.85-14.5a13.68,13.68,0,0,1,14,14.08c0,.36,0,1.14-.06,1.79Zm18.14-3.34a8.46,8.46,0,0,0-1.55-4.71,9.45,9.45,0,0,0-7.58-3.77,8.83,8.83,0,0,0-7.4,3.83,10.83,10.83,0,0,0-1.56,4.65Z"></path><path class="cls-1" d="M471.8,45V49.7a7.67,7.67,0,0,1,2.51-3.64,8.57,8.57,0,0,1,5.25-1.67h1.07V49a10,10,0,0,0-1.25-.06,7.05,7.05,0,0,0-6,3.17c-1.19,1.73-1.61,3.34-1.61,6.5v14h-4.54V45Z"></path><path class="cls-1" d="M499.08,52.56v-.29c0-2.57-2.09-4.18-5.26-4.18s-4.95,1.55-4.95,3.94,1.19,3.28,6.15,4.65c3.52,1,5.37,1.85,6.69,3.17a7.68,7.68,0,0,1,2.2,5.37c0,4.78-3.94,8-9.79,8-6.26,0-9.79-2.93-10.26-8.48h4.47c.3,3.11,2.33,4.78,5.79,4.78,3.11,0,5.14-1.61,5.14-4.06s-1.56-3.58-6.27-4.78c-6-1.61-8.66-4.12-8.66-8.29,0-4.78,3.88-8,9.67-8s9.38,3,9.61,8.17Z"></path><path class="cls-1" d="M511.79,45.58l-3.28-1.13L513.34,32l3.94,1.43Z"></path><path class="cls-1" d="M222.79,86.77c3.22,3.76,4.65,8.16,4.65,14.12a19.88,19.88,0,0,1-6.73,15.43A19.44,19.44,0,0,1,208,121.08a19.91,19.91,0,0,1-15.37-7.44,20.58,20.58,0,0,1-4.16-12.93c0-11.85,8.39-20.79,19.65-20.79A19.53,19.53,0,0,1,222.79,86.77Zm-29.18,13.76c0,9.23,6.07,16,14.29,16a14.25,14.25,0,0,0,10.61-4.77,17,17,0,0,0,3.81-10.9c0-5.3-1.43-9.17-4.53-12.15A14.33,14.33,0,0,0,208,84.57C199.74,84.57,193.61,91.36,193.61,100.53Z"></path><path class="cls-1" d="M239.11,120.37h-4.52V80.64h4.52v17c2.74-3.75,5.66-5.36,9.65-5.36,7.68,0,13.05,6,13.05,14.48S256.5,121,249,121c-4.23,0-7.21-1.61-9.89-5.36Zm-.06-13.7c0,6.25,3.58,10.42,8.94,10.42S257,113,257,106.85s-3.69-10.55-8.87-10.55S239.05,100.65,239.05,106.67Z"></path><path class="cls-1" d="M281.4,100.41v-.29c0-2.57-2.08-4.17-5.24-4.17s-4.94,1.54-4.94,3.93,1.19,3.27,6.13,4.64c3.52,1,5.36,1.85,6.67,3.16a7.68,7.68,0,0,1,2.21,5.36c0,4.77-3.93,8-9.77,8-6.26,0-9.77-2.92-10.25-8.46h4.47c.3,3.1,2.32,4.77,5.78,4.77,3.1,0,5.12-1.61,5.12-4s-1.55-3.57-6.25-4.77c-6-1.6-8.64-4.11-8.64-8.28,0-4.76,3.87-8,9.65-8s9.35,3,9.59,8.16Z"></path><path class="cls-1" d="M295.81,108.1a8.58,8.58,0,0,0,1.79,5,8.94,8.94,0,0,0,7.39,3.75,9.51,9.51,0,0,0,8.22-4.7l4,1.49A13.46,13.46,0,0,1,305,121c-8.16,0-14-6-14-14.29s5.78-14.48,13.82-14.48a13.66,13.66,0,0,1,13.94,14.06c0,.36,0,1.13-.06,1.79Zm18.11-3.34a8.46,8.46,0,0,0-1.55-4.7,9.39,9.39,0,0,0-7.56-3.76,8.82,8.82,0,0,0-7.39,3.82,11,11,0,0,0-1.55,4.64Z"></path><path class="cls-1" d="M329.82,92.91v4.64a7.87,7.87,0,0,1,2.5-3.63,8.66,8.66,0,0,1,5.25-1.67h1.07v4.59a10.06,10.06,0,0,0-1.25-.06,7,7,0,0,0-6,3.16c-1.19,1.72-1.61,3.33-1.61,6.49v13.94H325.3V92.91Z"></path><path class="cls-1" d="M366.75,92.91l-10.36,27.46h-4.77L341.56,92.91h4.76l7.74,21,8-21Z"></path><path class="cls-1" d="M391.65,92.91h4.53v27.46h-4.53v-5.3c-2.74,4.11-5.84,6-10,6-7.56,0-12.92-6-12.92-14.29s5.48-14.48,13-14.48c4.17,0,7.21,1.61,9.89,5.19Zm-15.9,6.67a12.55,12.55,0,0,0-2.27,7.27c0,5.83,3.81,10.24,8.82,10.24,5.18,0,9.41-4.82,9.41-10.72S387.9,96.3,382.42,96.3A7.47,7.47,0,0,0,375.75,99.58Z"></path><path class="cls-1" d="M409.93,114.77c.06,1.37.42,1.67,2.09,1.67h2.08v3.93h-4.22c-3.22-.06-4.47-1.25-4.47-4.29V96.9H401.6v-4h3.81V84.27h4.52v8.64h4.17v4h-4.17Z"></path><path class="cls-1" d="M445.73,106.73A14,14,0,0,1,431.68,121c-8.16,0-13.88-6-13.88-14.41s5.72-14.36,14.05-14.36C440,92.25,445.73,98.27,445.73,106.73Zm-23.29-.06c0,6.07,3.76,10.18,9.36,10.18,5.41,0,9.29-4.23,9.29-10.18,0-6.14-3.7-10.25-9.24-10.25S422.44,100.53,422.44,106.67Z"></path><path class="cls-1" d="M457.17,92.91v4.64a7.8,7.8,0,0,1,2.5-3.63,8.61,8.61,0,0,1,5.24-1.67H466v4.59a10,10,0,0,0-1.25-.06,7,7,0,0,0-6,3.16c-1.19,1.72-1.6,3.33-1.6,6.49v13.94h-4.53V92.91Z"></path><path class="cls-1" d="M489.33,92.91h4.94l-16.38,40.68H473l5.72-14.06L468.9,92.91h4.82l7.39,20.37Z"></path></g></g></svg>